<svg width="20" height="17" viewBox="0 0 20 17" fill="none" xmlns="http://www.w3.org/2000/svg">
<path d="M18 0H2C1.46957 0 0.960859 0.223883 0.585786 0.622398C0.210714 1.02091 0 1.56141 0 2.125V14.875C0 15.4386 0.210714 15.9791 0.585786 16.3776C0.960859 16.7761 1.46957 17 2 17H18C18.5304 17 19.0391 16.7761 19.4142 16.3776C19.7893 15.9791 20 15.4386 20 14.875V2.125C20 1.56141 19.7893 1.02091 19.4142 0.622398C19.0391 0.223883 18.5304 0 18 0ZM18 4.99375L10 10.6611L2 4.99375V2.44056L10 8.10688L18 2.44056V4.99375Z" fill="#B3B3B3"/>
</svg>
